<svg width="304" height="52" viewBox="0 0 304 52" fill="none" xmlns="http://www.w3.org/2000/svg">
<path d="M57.9597 12.4797L54.7997 11.9997V9.99966H65.6797V11.9997L62.2397 12.4797V23.2397H76.3197V12.4797L73.0797 11.9997V9.99966H83.7997V11.9997L80.6397 12.4797V37.3597L83.7997 37.7597V39.7197H73.0397V37.7597L76.3197 37.3597V25.7197H62.2397V37.3597L65.7197 37.7597V39.7197H54.7197V37.7597L57.9597 37.3597V12.4797ZM97.4847 40.1597C94.2581 40.1597 91.7914 39.1063 90.0847 36.9997C88.4047 34.893 87.5647 32.0797 87.5647 28.5597C87.5647 26.2397 88.0047 24.1997 88.8847 22.4397C89.7647 20.6797 90.9914 19.3197 92.5647 18.3597C94.1647 17.3997 95.9781 16.9197 98.0047 16.9197C100.485 16.9197 102.405 17.613 103.765 18.9997C105.151 20.3597 105.885 22.3197 105.965 24.8797C105.965 26.5063 105.871 27.7463 105.685 28.5997H91.9247C91.9781 31.2397 92.5914 33.373 93.7647 34.9997C94.9381 36.5997 96.6047 37.3997 98.7647 37.3997C99.8314 37.3997 100.938 37.213 102.085 36.8397C103.258 36.4397 104.165 35.973 104.805 35.4397L105.565 37.1997C104.791 37.9997 103.645 38.693 102.125 39.2797C100.605 39.8663 99.0581 40.1597 97.4847 40.1597ZM101.565 26.4797C101.645 25.9197 101.685 25.3463 101.685 24.7597C101.658 23.0263 101.285 21.6663 100.565 20.6797C99.8714 19.6663 98.7647 19.1597 97.2447 19.1597C95.6981 19.1597 94.4581 19.7197 93.5247 20.8397C92.6181 21.9597 92.0981 23.8397 91.9647 26.4797H101.565ZM112.323 9.87966L109.083 9.43966V7.71967L115.523 6.95966H115.603L116.483 7.55966V37.4397L119.883 37.7597V39.7197H109.083V37.7597L112.323 37.3997V9.87966ZM125.643 9.87966L122.403 9.43966V7.71967L128.843 6.95966H128.923L129.803 7.55966V37.4397L133.203 37.7597V39.7197H122.403V37.7597L125.643 37.3997V9.87966ZM136.043 28.5597C136.043 26.1597 136.536 24.0797 137.523 22.3197C138.51 20.5597 139.803 19.2263 141.403 18.3197C143.03 17.3863 144.763 16.9197 146.603 16.9197C149.963 16.9197 152.483 17.9863 154.163 20.1197C155.87 22.253 156.723 25.053 156.723 28.5197C156.723 30.9463 156.23 33.0397 155.243 34.7997C154.256 36.5597 152.95 37.893 151.323 38.7997C149.723 39.7063 148.003 40.1597 146.163 40.1597C142.803 40.1597 140.27 39.093 138.563 36.9597C136.883 34.8263 136.043 32.0263 136.043 28.5597ZM146.403 37.8797C148.243 37.8797 149.656 37.1197 150.643 35.5997C151.63 34.0797 152.123 31.8263 152.123 28.8397C152.123 25.8797 151.67 23.533 150.763 21.7997C149.856 20.0663 148.403 19.1997 146.403 19.1997C144.563 19.1997 143.136 19.9597 142.123 21.4797C141.136 22.9997 140.643 25.253 140.643 28.2397C140.643 31.1997 141.11 33.5463 142.043 35.2797C142.976 37.013 144.43 37.8797 146.403 37.8797ZM167.311 9.99966H178.151V11.9997L174.391 12.4797L179.871 31.1197L181.031 36.6797L182.351 31.1197L186.951 15.8797L185.871 12.4797L183.031 11.9997V9.99966H194.271V11.9997L190.351 12.4797L195.751 31.1197L197.111 37.1197L198.231 31.1197L203.271 12.4797L199.311 11.9997V9.99966H208.831V11.9997L206.191 12.4797L198.231 39.9197H194.311L188.191 19.8797L182.271 39.9197H178.471L169.951 12.5197L167.311 11.9997V9.99966ZM209.871 28.5597C209.871 26.1597 210.365 24.0797 211.351 22.3197C212.338 20.5597 213.631 19.2263 215.231 18.3197C216.858 17.3863 218.591 16.9197 220.431 16.9197C223.791 16.9197 226.311 17.9863 227.991 20.1197C229.698 22.253 230.551 25.053 230.551 28.5197C230.551 30.9463 230.058 33.0397 229.071 34.7997C228.085 36.5597 226.778 37.893 225.151 38.7997C223.551 39.7063 221.831 40.1597 219.991 40.1597C216.631 40.1597 214.098 39.093 212.391 36.9597C210.711 34.8263 209.871 32.0263 209.871 28.5597ZM220.231 37.8797C222.071 37.8797 223.485 37.1197 224.471 35.5997C225.458 34.0797 225.951 31.8263 225.951 28.8397C225.951 25.8797 225.498 23.533 224.591 21.7997C223.685 20.0663 222.231 19.1997 220.231 19.1997C218.391 19.1997 216.965 19.9597 215.951 21.4797C214.965 22.9997 214.471 25.253 214.471 28.2397C214.471 31.1997 214.938 33.5463 215.871 35.2797C216.805 37.013 218.258 37.8797 220.231 37.8797ZM234.287 37.7597L237.287 37.5197V20.5997L234.407 19.8797V17.7197L239.927 16.9997H240.007L240.887 17.7197V18.4397L240.767 21.5597H240.887C241.154 21.1063 241.634 20.5197 242.327 19.7997C243.021 19.0797 243.914 18.4263 245.007 17.8397C246.101 17.2263 247.287 16.9197 248.567 16.9197C249.101 16.9197 249.541 16.9863 249.887 17.1197V21.5997C249.701 21.4663 249.394 21.3463 248.967 21.2397C248.567 21.1063 248.114 21.0397 247.607 21.0397C245.394 21.0397 243.341 21.7197 241.447 23.0797V37.4797L246.527 37.7997V39.7197H234.287V37.7597ZM255.448 9.87966L252.208 9.43966V7.71967L258.648 6.95966H258.728L259.608 7.55966V37.4397L263.008 37.7597V39.7197H252.208V37.7597L255.448 37.3997V9.87966ZM274.488 40.1597C272.888 40.1597 271.421 39.7597 270.088 38.9597C268.755 38.1597 267.688 36.933 266.888 35.2797C266.115 33.6263 265.728 31.5863 265.728 29.1597C265.728 26.893 266.195 24.8263 267.128 22.9597C268.061 21.093 269.395 19.6263 271.128 18.5597C272.888 17.4663 274.955 16.9197 277.328 16.9197C278.688 16.9197 279.928 17.0663 281.048 17.3597V9.87966L276.968 9.39966V7.67966L284.168 6.95966H284.288L285.168 7.59966V37.6797H287.488V39.5197C286.635 39.7063 285.888 39.853 285.248 39.9597C284.635 40.0663 283.981 40.1197 283.288 40.1197C282.595 40.1197 282.101 39.9997 281.808 39.7597C281.515 39.5197 281.368 39.013 281.368 38.2397V36.9597C280.621 37.8663 279.635 38.6263 278.408 39.2397C277.208 39.853 275.901 40.1597 274.488 40.1597ZM276.088 37.3197C277.128 37.3197 278.101 37.093 279.008 36.6397C279.915 36.1597 280.595 35.613 281.048 34.9997V20.3597C280.835 20.0397 280.328 19.7597 279.528 19.5197C278.755 19.253 277.928 19.1197 277.048 19.1197C274.968 19.1197 273.301 19.9197 272.048 21.5197C270.821 23.093 270.208 25.533 270.208 28.8397C270.208 31.7197 270.755 33.853 271.848 35.2397C272.941 36.6263 274.355 37.3197 276.088 37.3197ZM297.092 30.1997H294.532L293.332 4.39966H298.212L297.092 30.1997ZM293.172 37.5997C293.172 36.7997 293.478 36.1197 294.092 35.5597C294.705 34.9997 295.398 34.7197 296.172 34.7197C297.025 34.7197 297.678 34.9597 298.132 35.4397C298.585 35.9197 298.812 36.5197 298.812 37.2397C298.812 38.093 298.505 38.7863 297.892 39.3197C297.305 39.853 296.585 40.1197 295.732 40.1197C295.038 40.1197 294.438 39.893 293.932 39.4397C293.425 38.9597 293.172 38.3463 293.172 37.5997Z" fill="#184444"/>
<path d="M29.7958 40.933C38.1979 38.6816 43.1841 30.0453 40.9328 21.6432C38.6814 13.2411 30.0451 8.25497 21.643 10.5063C13.2409 12.7576 8.25475 21.3939 10.5061 29.796C12.7574 38.1981 21.3937 43.1843 29.7958 40.933Z" stroke="#184444" stroke-width="2" stroke-miterlimit="10"/>
<path d="M10.0195 24.4914L38.703 16.8057" stroke="#184444" stroke-width="2" stroke-linecap="round" stroke-linejoin="round"/>
<path d="M12.7363 34.6336L41.4198 26.9479" stroke="#184444" stroke-width="2" stroke-linecap="round" stroke-linejoin="round"/>
<path d="M29.6859 40.521C33.1868 39.5829 34.2492 32.1957 32.0588 24.0212C29.8685 15.8467 25.2548 9.98033 21.7539 10.9184C18.2531 11.8564 17.1907 19.2437 19.381 27.4182C21.5714 35.5927 26.1851 41.459 29.6859 40.521Z" stroke="#184444" stroke-width="2" stroke-miterlimit="10"/>
</svg>
