<svg width="230" height="52" viewBox="0 0 308 52" fill="none" xmlns="http://www.w3.org/2000/svg">
<path d="M57.4797 12.9997L54.5197 12.4797V9.99966H66.6797V12.4797L63.3197 12.9997V23.0397H75.4797V12.9997L72.3997 12.4797V9.99966H84.3997V12.4797L81.3597 12.9997V36.9197L84.3997 37.3197V39.7197H72.3597V37.3197L75.4797 36.9197V26.0797H63.3197V36.9197L66.6797 37.3197V39.7197H54.4397V37.3197L57.4797 36.9197V12.9997ZM97.9982 40.1597C94.4782 40.1597 91.8515 39.133 90.1182 37.0797C88.4115 34.9997 87.5582 32.173 87.5582 28.5997C87.5582 26.1997 87.9982 24.1197 88.8782 22.3597C89.7848 20.5997 91.0515 19.253 92.6782 18.3197C94.3048 17.3863 96.1848 16.9197 98.3182 16.9197C100.985 16.9197 103.038 17.6263 104.478 19.0397C105.918 20.4263 106.665 22.413 106.718 24.9997C106.718 26.7597 106.611 28.0663 106.398 28.9197H93.3982C93.5048 31.3463 94.0782 33.2397 95.1182 34.5997C96.1582 35.933 97.6382 36.5997 99.5582 36.5997C100.598 36.5997 101.665 36.4263 102.758 36.0797C103.878 35.733 104.758 35.3197 105.398 34.8397L106.398 37.0397C105.678 37.813 104.505 38.533 102.878 39.1997C101.278 39.8397 99.6515 40.1597 97.9982 40.1597ZM101.118 26.5197C101.171 25.773 101.198 25.1997 101.198 24.7997C101.198 21.253 100.011 19.4797 97.6382 19.4797C96.3315 19.4797 95.3182 19.9997 94.5982 21.0397C93.8782 22.0797 93.4782 23.9063 93.3982 26.5197H101.118ZM112.23 10.4797L109.27 9.95966V7.79966L116.67 6.91966H116.75L117.83 7.67966V36.9997L120.75 37.3197V39.7197H109.43V37.3197L112.23 36.9597V10.4797ZM125.824 10.4797L122.864 9.95966V7.79966L130.264 6.91966H130.344L131.424 7.67966V36.9997L134.344 37.3197V39.7197H123.024V37.3197L125.824 36.9597V10.4797ZM137.098 28.6397C137.098 26.133 137.591 23.9997 138.578 22.2397C139.591 20.4797 140.938 19.1597 142.618 18.2797C144.298 17.373 146.125 16.9197 148.098 16.9197C151.458 16.9197 154.045 17.9597 155.858 20.0397C157.698 22.093 158.618 24.893 158.618 28.4397C158.618 30.973 158.111 33.133 157.098 34.9197C156.111 36.6797 154.778 37.9997 153.098 38.8797C151.445 39.733 149.618 40.1597 147.618 40.1597C144.285 40.1597 141.698 39.133 139.858 37.0797C138.018 34.9997 137.098 32.1863 137.098 28.6397ZM147.938 37.5597C150.951 37.5597 152.458 34.653 152.458 28.8397C152.458 25.7997 152.098 23.493 151.378 21.9197C150.658 20.3197 149.485 19.5197 147.858 19.5197C144.765 19.5197 143.218 22.4263 143.218 28.2397C143.218 31.2797 143.591 33.5997 144.338 35.1997C145.111 36.773 146.311 37.5597 147.938 37.5597ZM169.226 9.99966H181.226V12.4797L177.746 12.9997L182.786 31.0397L183.706 35.4797L184.626 31.0397L188.906 16.3997L187.786 12.9997L185.146 12.4797V9.99966H197.666V12.4797L193.826 12.9997L198.826 31.0397L199.906 35.8397L200.746 31.0397L205.306 12.9997L201.706 12.4797V9.99966H211.346V12.4797L208.786 12.9997L201.186 39.9197H195.906L190.386 21.2397L185.106 39.9197H179.906L171.666 13.0397L169.226 12.4797V9.99966ZM212.41 28.6397C212.41 26.133 212.904 23.9997 213.89 22.2397C214.904 20.4797 216.25 19.1597 217.93 18.2797C219.61 17.373 221.437 16.9197 223.41 16.9197C226.77 16.9197 229.357 17.9597 231.17 20.0397C233.01 22.093 233.93 24.893 233.93 28.4397C233.93 30.973 233.424 33.133 232.41 34.9197C231.424 36.6797 230.09 37.9997 228.41 38.8797C226.757 39.733 224.93 40.1597 222.93 40.1597C219.597 40.1597 217.01 39.133 215.17 37.0797C213.33 34.9997 212.41 32.1863 212.41 28.6397ZM223.25 37.5597C226.264 37.5597 227.77 34.653 227.77 28.8397C227.77 25.7997 227.41 23.493 226.69 21.9197C225.97 20.3197 224.797 19.5197 223.17 19.5197C220.077 19.5197 218.53 22.4263 218.53 28.2397C218.53 31.2797 218.904 33.5997 219.65 35.1997C220.424 36.773 221.624 37.5597 223.25 37.5597ZM237.567 37.3597L240.207 37.0397V21.2797L237.647 20.5597V17.7997L243.847 16.9597H243.967L244.967 17.7597V18.6397L244.847 21.8797H244.967C245.153 21.3463 245.593 20.693 246.287 19.9197C246.98 19.1197 247.847 18.4263 248.887 17.8397C249.953 17.2263 251.1 16.9197 252.327 16.9197C252.913 16.9197 253.42 16.9997 253.847 17.1597V23.1597C253.047 22.5997 252.073 22.3197 250.927 22.3197C248.98 22.3197 247.287 22.8397 245.847 23.8797V36.9997L250.487 37.3597V39.7197H237.567V37.3597ZM258.715 10.4797L255.755 9.95966V7.79966L263.155 6.91966H263.235L264.315 7.67966V36.9997L267.235 37.3197V39.7197H255.915V37.3197L258.715 36.9597V10.4797ZM278.348 40.1597C276.695 40.1597 275.215 39.773 273.908 38.9997C272.602 38.1997 271.562 36.973 270.788 35.3197C270.015 33.6663 269.628 31.5997 269.628 29.1197C269.628 26.8797 270.082 24.8397 270.988 22.9997C271.922 21.133 273.282 19.653 275.068 18.5597C276.855 17.4663 279.002 16.9197 281.508 16.9197C282.522 16.9197 283.482 17.0263 284.388 17.2397V10.4797L280.468 9.91966V7.71967L288.708 6.91966H288.828L289.948 7.75966V37.2797H292.108V39.5597C290.188 39.9597 288.602 40.1597 287.348 40.1597C286.495 40.1597 285.882 40.013 285.508 39.7197C285.162 39.453 284.988 38.9063 284.988 38.0797V36.9597C284.295 37.893 283.348 38.6663 282.148 39.2797C280.948 39.8663 279.682 40.1597 278.348 40.1597ZM280.428 36.8397C281.308 36.8397 282.082 36.6663 282.748 36.3197C283.442 35.9463 283.988 35.5063 284.388 34.9997V20.4397C284.202 20.173 283.802 19.9463 283.188 19.7597C282.602 19.573 281.962 19.4797 281.268 19.4797C279.562 19.4797 278.188 20.2263 277.148 21.7197C276.135 23.1863 275.628 25.5463 275.628 28.7997C275.628 31.5197 276.068 33.5463 276.948 34.8797C277.828 36.1863 278.988 36.8397 280.428 36.8397ZM301.868 29.7197H298.428L296.908 4.31966H303.348L301.868 29.7197ZM296.908 37.0797C296.908 36.1197 297.268 35.3197 297.988 34.6797C298.708 34.0397 299.561 33.7197 300.548 33.7197C301.534 33.7197 302.308 34.0263 302.868 34.6397C303.454 35.2263 303.748 35.933 303.748 36.7597C303.748 37.773 303.388 38.5863 302.668 39.1997C301.974 39.7863 301.081 40.0797 299.988 40.0797C299.161 40.0797 298.441 39.7997 297.828 39.2397C297.214 38.6797 296.908 37.9597 296.908 37.0797Z" fill="#184444"/>
<path d="M29.7958 40.933C38.1979 38.6816 43.1841 30.0453 40.9328 21.6432C38.6814 13.2411 30.0451 8.25497 21.643 10.5063C13.2409 12.7576 8.25475 21.3939 10.5061 29.796C12.7574 38.1981 21.3937 43.1843 29.7958 40.933Z" stroke="#184444" stroke-width="3" stroke-miterlimit="10"/>
<path d="M10.0195 24.4914L38.703 16.8057" stroke="#184444" stroke-width="2" stroke-linecap="round" stroke-linejoin="round"/>
<path d="M12.7363 34.6336L41.4198 26.9479" stroke="#184444" stroke-width="2" stroke-linecap="round" stroke-linejoin="round"/>
<path d="M29.6859 40.521C33.1868 39.5829 34.2492 32.1957 32.0588 24.0212C29.8685 15.8467 25.2548 9.98033 21.7539 10.9184C18.2531 11.8564 17.1907 19.2437 19.381 27.4182C21.5714 35.5927 26.1851 41.459 29.6859 40.521Z" stroke="#184444" stroke-width="3" stroke-miterlimit="10"/>
</svg>
